<svg xmlns="http://www.w3.org/2000/svg" width="820" height="380" viewBox="0 0 820 380">
<defs>
<pattern id="scan" x="0" y="0" width="1" height="3" patternUnits="userSpaceOnUse">
  <line x1="0" y1="1" x2="1000" y2="1" stroke="#ffffff" stroke-width="0.3" stroke-opacity="0.03"/>
</pattern>
<filter id="glow" x="-20%" y="-20%" width="140%" height="140%">
  <feGaussianBlur stdDeviation="3" result="blur"/>
  <feMerge><feMergeNode in="blur"/><feMergeNode in="SourceGraphic"/></feMerge>
</filter>
<filter id="shadow">
  <feDropShadow dx="0" dy="2" stdDeviation="4" flood-color="#c8102e" flood-opacity="0.3"/>
</filter>
</defs>
<rect width="820" height="380" fill="#0d0d0d" rx="12"/>
<rect width="820" height="380" fill="url(#scan)" rx="12"/>
<rect x="24" y="24" width="772" height="332" fill="#141414" rx="8" stroke="#8b0000" stroke-width="1.5"/>
<rect x="24" y="24" width="772" height="40" fill="#c8102e" rx="8"/>
<rect x="24" y="56" width="772" height="8" fill="#c8102e"/>
<circle cx="42" cy="44" r="6" fill="#ff5f57"/>
<circle cx="60" cy="44" r="6" fill="#ffbd2e"/>
<circle cx="78" cy="44" r="6" fill="#28c841"/>
<text x="410" y="48" text-anchor="middle" font-family="'Courier New', Courier, monospace" font-size="14" font-weight="bold" fill="#f0f0f0" filter="url(#glow)">aiden@cox — zsh</text>
<line x1="360" y1="69" x2="360" y2="346" stroke="#8b0000" stroke-width="1" stroke-dasharray="4,3"/>
<text font-family="'Courier New', Courier, monospace" font-size="11.5" fill="#e63950" xml:space="preserve" opacity="0.92">
  <tspan x="32" dy="0" y="110.0">                   .,l,                 </tspan>
  <tspan x="32" dy="0" y="124.2">                   .?Ul                 </tspan>
  <tspan x="32" dy="0" y="138.4">_             ;    .;;`           -'.!_ </tspan>
  <tspan x="32" dy="0" y="152.6">&gt;!;+^;;;,^~=cXr i/,-&gt;~_'+&lt;&lt;&lt;&lt;&lt;&gt;&gt;\Xqfn[ ,</tspan>
  <tspan x="32" dy="0" y="166.8">zI\Q[?IcQz/cJjc:)O=.(l'&gt;??/?Ill&lt;^tJ(WWcn</tspan>
  <tspan x="32" dy="0" y="181.0">#c L; ipjI u#mj +#[?ri&gt;]b|``  `IIfx'Z#Q|</tspan>
  <tspan x="32" dy="0" y="195.2">#b/ihW#Yi-(}IXb_t#hOZ/~&lt;m#L([`)Qt!&quot;=uXbQ</tspan>
  <tspan x="32" dy="0" y="209.39999999999998">WYtnm##f;!OU{{?h#hlcUY/tfq#0U;&lt;]kJ\ ~jU#</tspan>
  <tspan x="32" dy="0" y="223.6">n!;+]JXn~&gt;zowd\h#r'(ZO'?[oWd}!~ict\'\Y}^</tspan>
  <tspan x="32" dy="0" y="237.8">?x,LZ}c&quot;:,}#ZU\!ZnldX0W+&lt;?(#&gt;^i[}}+;zWqn</tspan>
  <tspan x="32" dy="0" y="252.0">ZOx^]/: '~i|l,. -:=#JfW&lt;; +###uh0W+!~_`i</tspan>
  <tspan x="32" dy="0" y="266.2">##Wkp&quot;   \vc[l`   &quot;?)?I=;';^&quot;..;fkZ'  !_</tspan>
  <tspan x="32" dy="0" y="280.4">?u^`(|i; [##pwu|Jx~^=&lt;+&gt;~;   ( =!;~,^+: </tspan>
</text>
<text x="162" y="304.6" text-anchor="middle" font-family="'Courier New', Courier, monospace" font-size="9" fill="#666666">OHSAA State Champions 🏆</text>
<text x="390" y="90" font-family="'Courier New', Courier, monospace" font-size="16" font-weight="bold" fill="#e63950" filter="url(#glow)">aiden@cox</text>
<line x1="390" y1="96" x2="570" y2="96" stroke="#c8102e" stroke-width="1"/>
<text x="390" y="114" font-family="'Courier New', Courier, monospace" font-size="13"><tspan fill="#f5b800" font-weight="bold">OS:</tspan><tspan fill="#f0f0f0"> GitHub Profile</tspan></text>
<text x="390" y="134" font-family="'Courier New', Courier, monospace" font-size="13"><tspan fill="#f5b800" font-weight="bold">Host:</tspan><tspan fill="#f0f0f0"> Aiden Cox</tspan></text>
<text x="390" y="154" font-family="'Courier New', Courier, monospace" font-size="13"><tspan fill="#f5b800" font-weight="bold">Uptime:</tspan><tspan fill="#f0f0f0"> 2026-02-25</tspan></text>
<text x="390" y="174" font-family="'Courier New', Courier, monospace" font-size="13"><tspan fill="#f5b800" font-weight="bold">Repos:</tspan><tspan fill="#f0f0f0"> 21</tspan></text>
<text x="390" y="194" font-family="'Courier New', Courier, monospace" font-size="13"><tspan fill="#f5b800" font-weight="bold">Stars:</tspan><tspan fill="#f0f0f0"> 3</tspan></text>
<text x="390" y="214" font-family="'Courier New', Courier, monospace" font-size="13"><tspan fill="#f5b800" font-weight="bold">Commits:</tspan><tspan fill="#f0f0f0"> 298</tspan></text>
<text x="390" y="234" font-family="'Courier New', Courier, monospace" font-size="13"><tspan fill="#f5b800" font-weight="bold">Followers:</tspan><tspan fill="#f0f0f0"> 22</tspan></text>
<text x="390" y="254" font-family="'Courier New', Courier, monospace" font-size="13"><tspan fill="#f5b800" font-weight="bold">Following:</tspan><tspan fill="#f0f0f0"> 39</tspan></text>
<text x="390" y="274" font-family="'Courier New', Courier, monospace" font-size="13"><tspan fill="#f5b800" font-weight="bold">Languages:</tspan><tspan fill="#f0f0f0"> Kotlin, C++, JavaScript</tspan></text>
<text x="390" y="294" font-family="'Courier New', Courier, monospace" font-size="13"><tspan fill="#f5b800" font-weight="bold">Shell:</tspan><tspan fill="#f0f0f0"> git bash</tspan></text>
<text x="390" y="314" font-family="'Courier New', Courier, monospace" font-size="13"><tspan fill="#f5b800" font-weight="bold">Editor:</tspan><tspan fill="#f0f0f0"> VS Code</tspan></text>
<rect x="390" y="342" width="18" height="14" fill="#c8102e" rx="2"/>
<rect x="411" y="342" width="18" height="14" fill="#f5b800" rx="2"/>
<rect x="432" y="342" width="18" height="14" fill="#ffffff" rx="2"/>
<rect x="453" y="342" width="18" height="14" fill="#0d0d0d" rx="2"/>
<rect x="474" y="342" width="18" height="14" fill="#666666" rx="2"/>
<rect x="495" y="342" width="18" height="14" fill="#e63950" rx="2"/>
<rect x="516" y="342" width="18" height="14" fill="#8b0000" rx="2"/>
<rect x="537" y="342" width="18" height="14" fill="#f0f0f0" rx="2"/>
<text x="410" y="351" text-anchor="middle" font-family="'Courier New', Courier, monospace" font-size="9" fill="#666666">Updated 2026-02-25 · github.com/aidenc17</text>
</svg>